<svg width="40" height="40" viewBox="0 0 40 40" fill="none" xmlns="http://www.w3.org/2000/svg">
<path d="M8.68125 21.6668H27.2979L19.1646 29.8001C18.5146 30.4501 18.5146 31.5168 19.1646 32.1668C19.8146 32.8168 20.8646 32.8168 21.5146 32.1668L32.4979 21.1834C33.1479 20.5334 33.1479 19.4834 32.4979 18.8334L21.5313 7.83342C21.2199 7.52134 20.7971 7.34595 20.3563 7.34595C19.9154 7.34595 19.4926 7.52134 19.1813 7.83342C18.5313 8.48342 18.5313 9.53342 19.1813 10.1834L27.2979 18.3334H8.68125C7.76459 18.3334 7.01459 19.0834 7.01459 20.0001C7.01459 20.9168 7.76459 21.6668 8.68125 21.6668Z" fill="#ED455D"/>
</svg>
