<svg width="40" height="40" viewBox="0 0 40 40" fill="none" xmlns="http://www.w3.org/2000/svg">
<path d="M31.3188 18.3417H12.7021L20.8354 10.2084C21.4854 9.55839 21.4854 8.49172 20.8354 7.84172C20.524 7.52964 20.1013 7.35425 19.6604 7.35425C19.2196 7.35425 18.7968 7.52964 18.4854 7.84172L7.50209 18.8251C6.85209 19.4751 6.85209 20.5251 7.50209 21.1751L18.4854 32.1584C19.1354 32.8084 20.1854 32.8084 20.8354 32.1584C21.4854 31.5084 21.4854 30.4584 20.8354 29.8084L12.7021 21.6751H31.3188C32.2354 21.6751 32.9854 20.9251 32.9854 20.0084C32.9854 19.0917 32.2354 18.3417 31.3188 18.3417Z" fill="#ED455D"/>
</svg>
