<svg width="65" height="13" viewBox="0 0 65 13" fill="none" xmlns="http://www.w3.org/2000/svg">
<path d="M0.314 13V0.309999H2.78L7.19 10.21H6.614L11.024 0.309999H13.472V13H10.916V4.378H11.636L7.694 13H6.074L2.114 4.378H2.87V13H0.314ZM16.3872 13L22.2192 0.309999H24.5412L30.4452 13H27.6012L26.0712 9.472L27.1692 10.246H19.6272L20.7432 9.472L19.2132 13H16.3872ZM23.3712 3.262L21.0492 8.77L20.5632 8.086H26.2332L25.8192 8.77L23.4432 3.262H23.3712ZM33.3394 13V0.309999H36.1474V5.404H41.9614V0.309999H44.7874V13H41.9614V7.726H36.1474V13H33.3394ZM49.1667 13V0.309999H57.9867V2.488H51.8487V5.458H57.5547V7.654H51.8487V10.822H57.9867V13H49.1667Z" fill="#25313C"/>
<path d="M61.3281 13V10.12H64.2441V13H61.3281Z" fill="#ED455D"/>
</svg>
