<svg width="183" height="37" viewBox="0 0 183 37" fill="none" xmlns="http://www.w3.org/2000/svg">
<g clip-path="url(#clip0_4372_337)">
<path d="M18.3 26.7174L24.6288 30.5451C25.7878 31.2466 27.206 30.2096 26.901 28.8981L25.2235 21.7001L30.8203 16.8506C31.842 15.9661 31.293 14.2886 29.951 14.1819L22.5853 13.5566L19.703 6.75514C19.1845 5.51989 17.4155 5.51989 16.897 6.75514L14.0148 13.5414L6.649 14.1666C5.307 14.2734 4.758 15.9509 5.77975 16.8354L11.3765 21.6849L9.699 28.8829C9.394 30.1944 10.8123 31.2314 11.9713 30.5299L18.3 26.7174Z" fill="#FFBB00"/>
<path d="M128.1 26.7174L134.429 30.5451C135.588 31.2466 137.006 30.2096 136.701 28.8981L135.023 21.7001L140.62 16.8506C141.642 15.9661 141.093 14.2886 139.751 14.1819L132.385 13.5566L129.503 6.75514C128.984 5.51989 127.215 5.51989 126.697 6.75514L123.815 13.5414L116.449 14.1666C115.107 14.2734 114.558 15.9509 115.58 16.8354L121.176 21.6849L119.499 28.8829C119.194 30.1944 120.612 31.2314 121.771 30.5299L128.1 26.7174Z" fill="#FFBB00"/>
<path d="M91.5 26.7174L97.8287 30.5451C98.9878 31.2466 100.406 30.2096 100.101 28.8981L98.4235 21.7001L104.02 16.8506C105.042 15.9661 104.493 14.2886 103.151 14.1819L95.7852 13.5566L92.903 6.75514C92.3845 5.51989 90.6155 5.51989 90.097 6.75514L87.2147 13.5414L79.849 14.1666C78.507 14.2734 77.958 15.9509 78.9797 16.8354L84.5765 21.6849L82.899 28.8829C82.594 30.1944 84.0122 31.2314 85.1712 30.5299L91.5 26.7174Z" fill="#FFBB00"/>
<path d="M54.9 26.7174L61.2288 30.5451C62.3878 31.2466 63.806 30.2096 63.501 28.8981L61.8235 21.7001L67.4202 16.8506C68.442 15.9661 67.893 14.2886 66.551 14.1819L59.1852 13.5566L56.303 6.75514C55.7845 5.51989 54.0155 5.51989 53.497 6.75514L50.6147 13.5414L43.249 14.1666C41.907 14.2734 41.358 15.9509 42.3797 16.8354L47.9765 21.6849L46.299 28.8829C45.994 30.1944 47.4122 31.2314 48.5712 30.5299L54.9 26.7174Z" fill="#FFBB00"/>
<path d="M164.7 26.7174L171.029 30.5451C172.188 31.2466 173.606 30.2096 173.301 28.8981L171.623 21.7001L177.22 16.8506C178.242 15.9661 177.693 14.2886 176.351 14.1819L168.985 13.5566L166.103 6.75514C165.584 5.51989 163.815 5.51989 163.297 6.75514L160.415 13.5414L153.049 14.1666C151.707 14.2734 151.158 15.9509 152.18 16.8354L157.776 21.6849L156.099 28.8829C155.794 30.1944 157.212 31.2314 158.371 30.5299L164.7 26.7174Z" fill="#FFBB00"/>
</g>
<defs>
<clipPath id="clip0_4372_337">
<rect width="183" height="36.6" fill="white"/>
</clipPath>
</defs>
</svg>
